<?xml version="1.0" encoding="utf-8"?>
<!-- Generator: Adobe Illustrator 16.0.0, SVG Export Plug-In . SVG Version: 6.00 Build 0)  -->
<!DOCTYPE svg PUBLIC "-//W3C//DTD SVG 1.1//EN" "http://www.w3.org/Graphics/SVG/1.1/DTD/svg11.dtd">
<svg version="1.1" id="Laag_1" xmlns="http://www.w3.org/2000/svg" xmlns:xlink="http://www.w3.org/1999/xlink" x="0px" y="0px"
	 width="500px" height="500px" viewBox="0 0 500 500" enable-background="new 0 0 500 500" xml:space="preserve">
<g>
	<path fill-rule="evenodd" clip-rule="evenodd" fill="#FFFFFF" d="M500.488,500.488c-166.667,0-333.333,0-500,0
		c0-166.667,0-333.333,0-500c166.667,0,333.333,0,500,0C500.488,167.155,500.488,333.821,500.488,500.488z M236.992,16.842
		c-68.569,6.689-121.779,31.766-163.616,79.113c-41.821,47.329-62.25,102.98-59.933,166.046
		c2.41,65.611,28.29,121.374,76.55,165.857c48.231,44.457,105.908,65.447,171.423,62.577c61.252-2.684,114.21-26.276,157.214-69.825
		c47.813-48.419,71.161-107.481,68.929-175.641c-1.926-58.819-23.534-110.296-63.757-153.198
		C371.67,36.169,306.375,13.409,236.992,16.842z"/>
	<path fill-rule="evenodd" clip-rule="evenodd" d="M236.992,16.842c69.383-3.433,134.678,19.327,186.81,74.93
		c40.223,42.901,61.831,94.379,63.757,153.198c2.232,68.16-21.116,127.222-68.929,175.641
		c-43.004,43.549-95.962,67.142-157.214,69.825c-65.516,2.87-123.192-18.12-171.423-62.577
		c-48.26-44.483-74.14-100.246-76.55-165.857c-2.317-63.066,18.112-118.718,59.933-166.046
		C115.213,48.607,168.423,23.531,236.992,16.842z M28.743,250.272c0.903,10.518,1.354,21.099,2.797,31.542
		c3.666,26.535,12.086,51.56,25.054,75.034c13.814,25.007,31.573,46.798,53.89,64.619c21.445,17.124,44.447,31.588,71.615,38.101
		c4.665,1.118,9.234,2.653,13.914,3.694c15.323,3.411,30.757,6.065,46.533,6.023c6.47-0.017,12.985,0.448,19.401-0.149
		c10.503-0.979,21.039-2.141,31.388-4.127c23.888-4.585,46.391-13.113,67.411-25.412c15.061-8.812,28.948-19.22,41.629-31.206
		c12.515-11.828,23.371-25.037,32.856-39.418c7.084-10.738,13.254-21.946,18.35-33.744c2.729-6.317,5.719-12.564,7.871-19.081
		c6.106-18.491,9.15-37.599,10.041-57.013c0.664-14.487-0.083-28.964-2.463-43.282c-8.581-51.63-32.283-95.059-71.08-130.214
		c-16.277-14.75-34.421-26.692-54.34-35.945c-34.965-16.24-71.648-22.908-110.108-20.001c-18.275,1.381-36.085,4.966-53.415,10.84
		c-29.772,10.09-56.282,25.802-79.37,47.123c-20.778,19.187-37.408,41.51-49.682,67.05
		C36.522,184.903,29.329,216.739,28.743,250.272z"/>
	<path fill-rule="evenodd" clip-rule="evenodd" fill="#FFFFFF" d="M28.743,250.272c0.586-33.533,7.78-65.37,22.292-95.566
		c12.273-25.54,28.903-47.864,49.682-67.05c23.088-21.321,49.598-37.033,79.37-47.123c17.33-5.874,35.14-9.458,53.415-10.84
		c38.46-2.907,75.144,3.762,110.108,20.001c19.919,9.252,38.063,21.195,54.34,35.945c38.797,35.156,62.499,78.584,71.08,130.214
		c2.38,14.317,3.127,28.794,2.463,43.282c-0.891,19.414-3.935,38.521-10.041,57.013c-2.152,6.517-5.143,12.764-7.871,19.081
		c-5.096,11.798-11.266,23.006-18.35,33.744c-9.485,14.381-20.342,27.59-32.856,39.418c-12.681,11.986-26.568,22.395-41.629,31.206
		c-21.021,12.299-43.523,20.827-67.411,25.412c-10.349,1.986-20.885,3.148-31.388,4.127c-6.416,0.598-12.931,0.133-19.401,0.149
		c-15.776,0.042-31.21-2.612-46.533-6.023c-4.68-1.041-9.249-2.576-13.914-3.694c-27.168-6.513-50.17-20.977-71.615-38.101
		c-22.317-17.821-40.075-39.612-53.89-64.619c-12.968-23.475-21.389-48.499-25.054-75.034
		C30.097,271.371,29.646,260.79,28.743,250.272z M349.511,370.47c0.222,0.019,0.443,0.037,0.665,0.056
		c0.379-1.127,0.79-2.245,1.131-3.384c5.206-17.377,10.428-34.749,15.594-52.139c4.956-16.685,10.028-33.338,14.714-50.099
		c3.494-12.496,4.304-25.266,2.472-38.174c-2.203-15.524-8.523-29.431-16.428-42.762c-4.438-7.483-9.007-14.912-12.954-22.653
		c-4.628-9.078-6.829-18.775-5.059-29.068c2.45-14.243,14.139-26.944,28.956-28.34c1.823-0.172,3.645-0.357,5.607-0.55
		c-37.682-36.309-105.495-64.366-179.943-46.53c-50.766,12.162-90.362,40.632-120.23,83.969c1.438,0.238,2.056,0.433,2.672,0.429
		c10.483-0.07,20.969-0.031,31.447-0.299c7.145-0.183,14.279-0.814,21.419-1.223c3.813-0.218,7.629-0.51,11.445-0.547
		c3.735-0.037,6.211,1.967,7.179,5.421c1.532,5.466-1.896,10.127-7.885,10.633c-6.477,0.547-12.956,1.072-19.44,1.518
		c-1.822,0.125-2.592,0.679-1.845,2.559c0.571,1.435,1.065,2.902,1.556,4.368c16.197,48.374,32.384,96.75,48.586,145.123
		c6.487,19.365,13.002,38.72,19.518,58.074c0.603,1.791,1.3,3.55,1.953,5.323c0.951-0.795,1.283-1.503,1.529-2.239
		c13.938-41.834,27.882-83.667,41.735-125.53c0.462-1.397,0.36-3.23-0.117-4.646c-2.026-6.01-4.296-11.939-6.472-17.899
		c-7.618-20.861-15.249-41.716-22.821-62.594c-0.621-1.713-1.598-2.464-3.382-2.529c-2.759-0.101-5.521-0.279-8.269-0.551
		c-3.879-0.384-7.761-0.79-11.615-1.364c-2.955-0.439-4.872-2.325-5.477-5.213c-1.252-5.98,2.057-10.951,8.284-10.509
		c6.89,0.489,13.801,0.691,20.691,1.178c17.13,1.211,34.27,1.65,51.428,0.794c6.897-0.344,13.785-0.893,20.681-1.296
		c4.544-0.266,9.092-0.553,13.641-0.616c3.732-0.051,6.182,1.966,7.15,5.45c1.444,5.191-1.64,9.895-7.202,10.503
		c-6.459,0.707-12.949,1.148-19.434,1.604c-3.108,0.219-3.275,0.346-2.286,3.294c10.708,31.934,21.414,63.868,32.126,95.801
		c12.109,36.102,24.223,72.202,36.347,108.298C347.896,366.249,348.73,368.35,349.511,370.47z M254.365,268.404
		c-0.207,0.018-0.414,0.034-0.621,0.051c-0.294,0.627-0.638,1.235-0.874,1.883c-1.142,3.132-2.245,6.278-3.377,9.414
		c-5.266,14.583-10.557,29.157-15.799,43.749c-2.225,6.196-4.301,12.446-6.536,18.64c-3.856,10.688-7.841,21.33-11.664,32.03
		c-3.957,11.077-7.759,22.21-11.68,33.301c-3.355,9.492-6.788,18.957-10.177,28.437c-1.092,3.056,0.292,5.753,3.426,6.635
		c14.225,3.999,28.738,6.406,43.475,7.099c21.096,0.991,41.906-1.18,62.3-6.803c4.593-1.267,9.113-2.795,13.73-4.222
		C295.731,381.601,275.049,325.003,254.365,268.404z M68.966,169.954c-3.998,4.345-12.176,30.117-15.082,47.836
		c-6.337,38.645-1.858,76.026,13.666,112.016c9.411,21.818,22.439,41.29,38.861,58.421c16.413,17.123,35.234,30.999,56.563,41.334
		c0.224-0.19,0.447-0.381,0.671-0.571C132.112,342.718,100.579,256.446,68.966,169.954z M351.342,422.483
		c43.843-26.73,74.073-64.148,89.563-113.2c8.031-25.436,10.531-51.528,7.886-78.101c-2.64-26.496-10.136-51.47-23.135-74.787
		c-0.287,0.831-0.27,1.604-0.203,2.373c0.242,2.833,0.614,5.661,0.735,8.499c0.827,19.442-1.492,38.53-7.329,57.077
		c-3.709,11.786-8.095,23.36-12.251,35.003c-7.485,20.968-15.013,41.921-22.548,62.871c-6.381,17.74-12.815,35.462-19.192,53.203
		c-3.791,10.546-7.656,21.069-11.211,31.695C352.062,411.885,348.835,416.475,351.342,422.483z"/>
	<path fill-rule="evenodd" clip-rule="evenodd" d="M349.511,370.47c-0.78-2.12-1.615-4.221-2.334-6.361
		c-12.124-36.096-24.237-72.196-36.347-108.298c-10.712-31.933-21.418-63.867-32.126-95.801c-0.989-2.948-0.822-3.075,2.286-3.294
		c6.484-0.455,12.975-0.896,19.434-1.604c5.563-0.609,8.646-5.312,7.202-10.503c-0.969-3.484-3.418-5.501-7.15-5.45
		c-4.549,0.063-9.097,0.35-13.641,0.616c-6.896,0.403-13.783,0.952-20.681,1.296c-17.158,0.856-34.298,0.417-51.428-0.794
		c-6.891-0.487-13.801-0.689-20.691-1.178c-6.227-0.442-9.537,4.528-8.284,10.509c0.605,2.888,2.522,4.773,5.477,5.213
		c3.854,0.574,7.736,0.98,11.615,1.364c2.748,0.272,5.509,0.451,8.269,0.551c1.785,0.065,2.761,0.816,3.382,2.529
		c7.572,20.877,15.204,41.733,22.821,62.594c2.176,5.96,4.446,11.889,6.472,17.899c0.478,1.416,0.58,3.249,0.117,4.646
		c-13.853,41.863-27.797,83.696-41.735,125.53c-0.246,0.736-0.578,1.444-1.529,2.239c-0.653-1.773-1.351-3.532-1.953-5.323
		c-6.516-19.354-13.031-38.709-19.518-58.074c-16.203-48.372-32.39-96.749-48.586-145.123c-0.491-1.465-0.985-2.933-1.556-4.368
		c-0.747-1.88,0.023-2.434,1.845-2.559c6.485-0.445,12.964-0.97,19.44-1.518c5.989-0.506,9.417-5.167,7.885-10.633
		c-0.968-3.454-3.444-5.458-7.179-5.421c-3.816,0.038-7.632,0.329-11.445,0.547c-7.14,0.409-14.274,1.04-21.419,1.223
		c-10.478,0.269-20.964,0.229-31.447,0.299c-0.616,0.003-1.234-0.191-2.672-0.429c29.869-43.336,69.464-71.807,120.23-83.969
		c74.448-17.835,142.261,10.221,179.943,46.53c-1.963,0.192-3.784,0.378-5.607,0.55c-14.817,1.396-26.506,14.097-28.956,28.34
		c-1.771,10.293,0.431,19.99,5.059,29.068c3.947,7.741,8.517,15.17,12.954,22.653c7.904,13.331,14.225,27.238,16.428,42.762
		c1.832,12.908,1.022,25.678-2.472,38.174c-4.686,16.761-9.758,33.414-14.714,50.099c-5.166,17.39-10.388,34.762-15.594,52.139
		c-0.341,1.139-0.752,2.257-1.131,3.384C349.954,370.507,349.732,370.488,349.511,370.47z"/>
	<path fill-rule="evenodd" clip-rule="evenodd" d="M254.365,268.404c20.684,56.599,41.366,113.196,62.203,170.213
		c-4.617,1.427-9.138,2.955-13.73,4.222c-20.394,5.623-41.204,7.794-62.3,6.803c-14.737-0.692-29.25-3.1-43.475-7.099
		c-3.134-0.882-4.519-3.579-3.426-6.635c3.39-9.479,6.822-18.944,10.177-28.437c3.921-11.091,7.723-22.224,11.68-33.301
		c3.823-10.7,7.808-21.343,11.664-32.03c2.234-6.193,4.311-12.443,6.536-18.64c5.242-14.592,10.533-29.166,15.799-43.749
		c1.132-3.136,2.236-6.282,3.377-9.414c0.236-0.647,0.58-1.256,0.874-1.883C253.951,268.438,254.158,268.422,254.365,268.404z"/>
	<path fill-rule="evenodd" clip-rule="evenodd" d="M68.966,169.954c31.613,86.493,63.146,172.764,94.68,259.036
		c-0.224,0.19-0.447,0.381-0.671,0.571c-21.33-10.335-40.151-24.211-56.563-41.334c-16.422-17.131-29.45-36.603-38.861-58.421
		c-15.524-35.99-20.002-73.371-13.666-112.016C56.79,200.07,64.968,174.299,68.966,169.954z"/>
	<path fill-rule="evenodd" clip-rule="evenodd" d="M351.342,422.483c-2.507-6.009,0.72-10.599,2.314-15.367
		c3.555-10.626,7.42-21.149,11.211-31.695c6.377-17.741,12.812-35.463,19.192-53.203c7.535-20.95,15.063-41.903,22.548-62.871
		c4.156-11.643,8.542-23.217,12.251-35.003c5.837-18.547,8.156-37.635,7.329-57.077c-0.121-2.838-0.493-5.666-0.735-8.499
		c-0.066-0.769-0.084-1.542,0.203-2.373c12.999,23.317,20.495,48.292,23.135,74.787c2.646,26.573,0.146,52.666-7.886,78.101
		C425.415,358.335,395.185,395.753,351.342,422.483z"/>
</g>
</svg>
